<svg xmlns="http://www.w3.org/2000/svg" viewBox="0 0 165.49 69.61"><defs><style>.cls-1{fill:#fff;}</style></defs><g id="Layer_2" data-name="Layer 2"><g id="Calque_1" data-name="Calque 1"><path class="cls-1" d="M3.39,15.51a4.81,4.81,0,0,0,1-1.44,4.21,4.21,0,0,0,.34-1.68V.08H3.32V12.39a3,3,0,0,1-.93,2.14,3.72,3.72,0,0,1-2.28,1H0V17H.14A5.16,5.16,0,0,0,3.39,15.51Z"/><path class="cls-1" d="M18.44,14.27l.08-.12-1.21-.67-.07.09a5.26,5.26,0,0,1-1.78,1.54,4.85,4.85,0,0,1-2.32.56,4.68,4.68,0,0,1-3.21-1.22,5.58,5.58,0,0,1-1.76-3.11H19.56l0-.52A6.61,6.61,0,0,0,19,8.25a6.66,6.66,0,0,0-1.36-2.16,5.89,5.89,0,0,0-2-1.38,6.62,6.62,0,0,0-5,0A5.91,5.91,0,0,0,8.61,6.08,6.66,6.66,0,0,0,7.22,8.16a6.4,6.4,0,0,0-.5,2.49,6.3,6.3,0,0,0,.5,2.47,6.52,6.52,0,0,0,3.45,3.45,6.3,6.3,0,0,0,2.47.5,6.17,6.17,0,0,0,3-.76A6.59,6.59,0,0,0,18.44,14.27ZM8.17,9.92a5.59,5.59,0,0,1,1.76-3.1h0a4.85,4.85,0,0,1,6.43,0,5.52,5.52,0,0,1,1.75,3.1Z"/><path class="cls-1" d="M30.11,12a3.45,3.45,0,0,1-.29,1.38,3.82,3.82,0,0,1-.8,1.16,3.68,3.68,0,0,1-1.18.8,3.58,3.58,0,0,1-1.4.29,3.46,3.46,0,0,1-2.59-1.09,4,4,0,0,1-.8-1.16A3.41,3.41,0,0,1,22.76,12V4.2H21.34V12a4.69,4.69,0,0,0,.4,1.92,5.16,5.16,0,0,0,1.09,1.6,4.9,4.9,0,0,0,1.62,1.08,5,5,0,0,0,2,.4,4.79,4.79,0,0,0,2-.43,5.29,5.29,0,0,0,1.65-1.3v1.51h1.4V4.2h-1.4Z"/><path class="cls-1" d="M35.16,9.2a3.42,3.42,0,0,1,.5-1.81A3.79,3.79,0,0,1,37,6.08a3.7,3.7,0,0,1,3.23-.2,3.56,3.56,0,0,1,1.19.78,3.79,3.79,0,0,1,.79,1.16A3.57,3.57,0,0,1,42.5,9.2v7.74h1.43V9.2a4.94,4.94,0,0,0-.4-1.93,5.09,5.09,0,0,0-1.09-1.61,5.24,5.24,0,0,0-1.65-1.08,5.1,5.1,0,0,0-4.1.1A4.15,4.15,0,0,0,35.16,6V4.55h-1.4V16.94h1.4Z"/><path class="cls-1" d="M47.56,15.18a6.5,6.5,0,0,0,2.07,1.39,6.3,6.3,0,0,0,2.47.5,6.23,6.23,0,0,0,3-.76,6.68,6.68,0,0,0,2.29-2l.08-.12-1.22-.67-.06.09a5.39,5.39,0,0,1-1.79,1.54,4.84,4.84,0,0,1-2.31.56,4.7,4.7,0,0,1-3.22-1.22,5.51,5.51,0,0,1-1.75-3.11H58.51l0-.52A6.8,6.8,0,0,0,58,8.25a6.66,6.66,0,0,0-1.36-2.16,5.93,5.93,0,0,0-2.06-1.38,6.6,6.6,0,0,0-5,0,6,6,0,0,0-2.06,1.37,6.66,6.66,0,0,0-1.39,2.08,6.39,6.39,0,0,0-.49,2.49,6.29,6.29,0,0,0,.49,2.47A6.46,6.46,0,0,0,47.56,15.18Zm-.43-5.26a5.52,5.52,0,0,1,1.75-3.1h0a4.85,4.85,0,0,1,6.43,0,5.59,5.59,0,0,1,1.76,3.1Z"/><path class="cls-1" d="M69.05,14.53a8.71,8.71,0,0,0,2.75,1.85,8.43,8.43,0,0,0,3.31.66,8.46,8.46,0,0,0,6.27-2.74l.09-.09-1-.89-.08.09A7.3,7.3,0,0,1,78,15.07a7.22,7.22,0,0,1-2.85.57,7,7,0,0,1-2.76-.55,7.2,7.2,0,0,1-2.3-1.54,7.08,7.08,0,0,1-1.56-7.78,7.17,7.17,0,0,1,1.56-2.28A7.37,7.37,0,0,1,72.35,2,7.25,7.25,0,0,1,78,2a7.27,7.27,0,0,1,2.39,1.65l.08.09,1.06-.88-.09-.1a8.14,8.14,0,0,0-2.84-2A8.58,8.58,0,0,0,75.11,0a8.41,8.41,0,0,0-3.29.66,8.8,8.8,0,0,0-2.77,1.83A8.6,8.6,0,0,0,67.2,5.24a8.42,8.42,0,0,0,1.85,9.29Z"/><path class="cls-1" d="M84.86,9.2a3.26,3.26,0,0,1,.29-1.38,4,4,0,0,1,.79-1.16,3.53,3.53,0,0,1,2.59-1,3.58,3.58,0,0,1,3.37,2.2,3.41,3.41,0,0,1,.28,1.38v7.74H93.6V9.2a4.85,4.85,0,0,0-.38-1.9,5.35,5.35,0,0,0-1.1-1.62A4.89,4.89,0,0,0,90.5,4.62a5.15,5.15,0,0,0-2-.37,4.41,4.41,0,0,0-2,.45,5.83,5.83,0,0,0-1.7,1.37V0H83.43V16.94h1.43Z"/><path class="cls-1" d="M97.49,15.21a6.31,6.31,0,0,0,2.05,1.37,6.45,6.45,0,0,0,2.48.49,6,6,0,0,0,3-.74,6.33,6.33,0,0,0,2-2v2.57h1.4V4.55h-1.4V6.69A5,5,0,0,0,105.19,5,6.68,6.68,0,0,0,102,4.25a6.45,6.45,0,0,0-2.48.48,6.33,6.33,0,0,0-2.05,1.38A6.44,6.44,0,0,0,96.1,8.19a6.35,6.35,0,0,0-.5,2.48,6.44,6.44,0,0,0,.5,2.49A6.31,6.31,0,0,0,97.49,15.21ZM97,10.67a5,5,0,0,1,.39-2A4.9,4.9,0,0,1,100.06,6,5.19,5.19,0,0,1,104,6a4.85,4.85,0,0,1,1.61,1.08,4.79,4.79,0,0,1,1.08,1.62,5,5,0,0,1,.39,2,4.84,4.84,0,0,1-.41,1.95A5,5,0,0,1,104,15.3a5.09,5.09,0,0,1-5.51-1.07A5.07,5.07,0,0,1,97,10.67Z"/><path class="cls-1" d="M112.59,8.9a3.28,3.28,0,0,1,.26-1.27,3.56,3.56,0,0,1,.68-1.07,3.5,3.5,0,0,1,1-.71,3.06,3.06,0,0,1,2.43,0,3.21,3.21,0,0,1,1,.69,3.31,3.31,0,0,1,.68,1A3.09,3.09,0,0,1,119,8.8v8.14h1.38V8.8a3.05,3.05,0,0,1,.25-1.24,3.17,3.17,0,0,1,.69-1,3.06,3.06,0,0,1,2.26-.94,3,3,0,0,1,1.22.25,3.26,3.26,0,0,1,1,.68,3.51,3.51,0,0,1,.69,1.07,3.17,3.17,0,0,1,.25,1.25v8.09h1.38V8.85A4.82,4.82,0,0,0,127.74,7a4.27,4.27,0,0,0-1-1.5,4.69,4.69,0,0,0-1.46-1,4.51,4.51,0,0,0-1.75-.34,4.86,4.86,0,0,0-3.9,2.16,4.75,4.75,0,0,0-3.87-2.16,4.13,4.13,0,0,0-1.9.49,3.46,3.46,0,0,0-1.28,1.13V4.55h-1.37V16.94h1.37Z"/><path class="cls-1" d="M131.68,14.67a4.86,4.86,0,0,0,2,1.76,7.42,7.42,0,0,0,3.16.64,6.27,6.27,0,0,0,2.49-.51,6.46,6.46,0,0,0,3.46-3.43,6.3,6.3,0,0,0,0-4.87,6.46,6.46,0,0,0-3.46-3.43,6.45,6.45,0,0,0-2.49-.51,6.87,6.87,0,0,0-3.17.68,5.16,5.16,0,0,0-2,1.83V.1h-1.35V16.94h1.35Zm.46-2.05a4.77,4.77,0,0,1-.41-1.92,4.7,4.7,0,0,1,.41-1.92,4.91,4.91,0,0,1,1.11-1.59,5.11,5.11,0,0,1,1.62-1.08,4.91,4.91,0,0,1,1.94-.39,5.06,5.06,0,0,1,4.65,3.08,4.68,4.68,0,0,1,.39,1.9,4.76,4.76,0,0,1-.4,1.92,5,5,0,0,1-2.69,2.68,5.12,5.12,0,0,1-3.92,0,4.93,4.93,0,0,1-2.7-2.68Z"/><path class="cls-1" d="M153.06,4.79a4.77,4.77,0,0,0-2.54-.69,4.67,4.67,0,0,0-2,.44,5,5,0,0,0-2,1.7,4.39,4.39,0,0,0-.73,2.46v8.24h1.43V8.7a3,3,0,0,1,.26-1.23,3.55,3.55,0,0,1,.72-1.06,3.34,3.34,0,0,1,2.36-.94,4,4,0,0,1,1.19.22l0,0,1.49-.8Z"/><path class="cls-1" d="M165,8.25a6.85,6.85,0,0,0-1.37-2.16,5.8,5.8,0,0,0-2.05-1.38,6.62,6.62,0,0,0-5,0,6,6,0,0,0-2.05,1.37,6.66,6.66,0,0,0-1.39,2.08,6.4,6.4,0,0,0-.5,2.49,6.3,6.3,0,0,0,.5,2.47,6.52,6.52,0,0,0,3.45,3.45,6.32,6.32,0,0,0,2.48.5,6.16,6.16,0,0,0,3-.76,6.62,6.62,0,0,0,2.3-2l.08-.12-1.22-.67-.07.09a5.26,5.26,0,0,1-1.78,1.54,4.84,4.84,0,0,1-2.31.56,4.7,4.7,0,0,1-3.22-1.22,5.51,5.51,0,0,1-1.75-3.11h11.38l0-.51h0A6.78,6.78,0,0,0,165,8.25ZM154.08,9.92a5.52,5.52,0,0,1,1.75-3.1,4.85,4.85,0,0,1,6.43,0A5.59,5.59,0,0,1,164,9.92Z"/><path class="cls-1" d="M11.57,33.1a5.22,5.22,0,0,0-2-1.83,6.9,6.9,0,0,0-3.17-.67,6.44,6.44,0,0,0-4.56,1.88A6.36,6.36,0,0,0,.5,34.53a6.18,6.18,0,0,0,0,4.87,6.36,6.36,0,0,0,1.39,2.05A6.43,6.43,0,0,0,4,42.83a6.28,6.28,0,0,0,2.5.51A7.26,7.26,0,0,0,9.6,42.7a4.86,4.86,0,0,0,2-1.76v2.27h1.35V26.37H11.57Zm-.45,2a4.77,4.77,0,0,1,.4,1.91,4.89,4.89,0,0,1-.4,1.92A5,5,0,0,1,10,40.5a4.72,4.72,0,0,1-1.62,1.07,5.09,5.09,0,0,1-3.91,0A4.68,4.68,0,0,1,2.89,40.5,5,5,0,0,1,1.8,38.89,4.89,4.89,0,0,1,1.4,37a4.72,4.72,0,0,1,.39-1.9,5.18,5.18,0,0,1,1.1-1.61A4.85,4.85,0,0,1,4.5,32.38a5.13,5.13,0,0,1,2-.38,5,5,0,0,1,1.93.38A5.45,5.45,0,0,1,10,33.46,5,5,0,0,1,11.12,35.06Z"/><path class="cls-1" d="M25.88,32.36A6.07,6.07,0,0,0,23.82,31a6.65,6.65,0,0,0-5,0,6.07,6.07,0,0,0-2.06,1.38,6.5,6.5,0,0,0-1.39,2.07,6.43,6.43,0,0,0-.49,2.49,6.29,6.29,0,0,0,.49,2.47,6.49,6.49,0,0,0,3.46,3.45,6.27,6.27,0,0,0,2.47.5,6.19,6.19,0,0,0,3-.75,6.81,6.81,0,0,0,2.29-2.05l.08-.12-1.22-.67-.06.09a5.39,5.39,0,0,1-1.79,1.54,4.84,4.84,0,0,1-2.31.56,4.7,4.7,0,0,1-3.22-1.22,5.52,5.52,0,0,1-1.75-3.1H27.75l0-.53a7.42,7.42,0,0,0-1.91-4.73Zm-9.51,3.83a5.52,5.52,0,0,1,1.75-3.1,4.86,4.86,0,0,1,6.44,0,5.64,5.64,0,0,1,1.75,3.1Z"/><path class="cls-1" d="M39.77,31a6.9,6.9,0,0,0-2.08,1.39,6.49,6.49,0,0,0-1.4,2,6.27,6.27,0,0,0-.51,2.49,6.19,6.19,0,0,0,.51,2.48,6.43,6.43,0,0,0,1.4,2.06,6.86,6.86,0,0,0,2.08,1.38,6.24,6.24,0,0,0,2.48.5,6.37,6.37,0,0,0,2.54-.51,6.7,6.7,0,0,0,2.1-1.45l.11-.12-1.24-.72-.07.06a4.68,4.68,0,0,1-1.56,1,5.27,5.27,0,0,1-1.88.34,4.82,4.82,0,0,1-1.93-.39,5.42,5.42,0,0,1-1.63-1.07,5.15,5.15,0,0,1-1.11-1.61,5,5,0,0,1,0-3.9,4.93,4.93,0,0,1,1.11-1.61,5.24,5.24,0,0,1,1.63-1.07,4.87,4.87,0,0,1,1.93-.4,5.07,5.07,0,0,1,1.88.35,4.65,4.65,0,0,1,1.56,1l.07.07L47,32.57l-.11-.11a6.27,6.27,0,0,0-4.64-2A6.24,6.24,0,0,0,39.77,31Z"/><path class="cls-1" d="M54.37,30.4a6.29,6.29,0,0,0-2.47.49,6.5,6.5,0,0,0-3.46,3.48,6.38,6.38,0,0,0-.51,2.52,6.19,6.19,0,0,0,.51,2.48,6.65,6.65,0,0,0,3.46,3.46,6.14,6.14,0,0,0,2.47.51,6.43,6.43,0,0,0,2.53-.51A6.63,6.63,0,0,0,59,41.43a6.4,6.4,0,0,0,1.39-2.06,6.32,6.32,0,0,0,.5-2.48,6.51,6.51,0,0,0-.5-2.52,6.36,6.36,0,0,0-3.48-3.48A6.5,6.5,0,0,0,54.37,30.4ZM58,33.26a5.38,5.38,0,0,1,1.09,1.66,5.06,5.06,0,0,1,0,3.92A5.09,5.09,0,0,1,58,40.48a4.91,4.91,0,0,1-1.63,1.11,5,5,0,0,1-3.91,0,5.36,5.36,0,0,1-1.63-1.11,5.28,5.28,0,0,1-1.11-1.64,5,5,0,0,1-.4-2,5.16,5.16,0,0,1,3.14-4.73,4.82,4.82,0,0,1,1.93-.39,5.18,5.18,0,0,1,2,.39A4.74,4.74,0,0,1,58,33.26Z"/><path class="cls-1" d="M78.4,31.81a4.61,4.61,0,0,0-1.46-1,4.52,4.52,0,0,0-1.75-.35,4.86,4.86,0,0,0-3.9,2.16,4.75,4.75,0,0,0-3.87-2.16,4.13,4.13,0,0,0-1.9.49,3.46,3.46,0,0,0-1.28,1.13V30.82H62.87V43.21h1.37v-8a3.32,3.32,0,0,1,.26-1.27,3.56,3.56,0,0,1,.68-1.07,3.5,3.5,0,0,1,1-.71,3.06,3.06,0,0,1,2.43,0,3.33,3.33,0,0,1,1,.69,3.25,3.25,0,0,1,.68,1,3.09,3.09,0,0,1,.25,1.24v8.14H72V35.07a3.09,3.09,0,0,1,.25-1.24,3.28,3.28,0,0,1,.69-1,3.1,3.1,0,0,1,2.26-.94,3.13,3.13,0,0,1,1.22.25,3.26,3.26,0,0,1,1,.68,3.64,3.64,0,0,1,.69,1.07,3.17,3.17,0,0,1,.25,1.25v8.09h1.38V35.12a4.82,4.82,0,0,0-.35-1.81A4.51,4.51,0,0,0,78.4,31.81Z"/><path class="cls-1" d="M96.54,32.81a3.27,3.27,0,0,1,.68,1.06,3.18,3.18,0,0,1,.26,1.25v8.09h1.37V35.12a4.82,4.82,0,0,0-.35-1.81,4.58,4.58,0,0,0-2.45-2.49,4.48,4.48,0,0,0-1.75-.35,4.83,4.83,0,0,0-3.89,2.16,4.76,4.76,0,0,0-3.88-2.16,4.09,4.09,0,0,0-1.89.49,3.31,3.31,0,0,0-1.28,1.13V30.82H82V43.21h1.38v-8a3.3,3.3,0,0,1,.25-1.27,3.4,3.4,0,0,1,.69-1.07,3.45,3.45,0,0,1,1-.71,3.09,3.09,0,0,1,2.44,0,3.25,3.25,0,0,1,1.71,1.71,3.09,3.09,0,0,1,.25,1.24v8.14H91.1V35.07a3.21,3.21,0,0,1,3.2-3.2,3.18,3.18,0,0,1,1.23.25A3.36,3.36,0,0,1,96.54,32.81Z"/><path class="cls-1" d="M104.79,31a5.93,5.93,0,0,0-2.05,1.38,6.34,6.34,0,0,0-1.39,2.07,6.44,6.44,0,0,0-.5,2.49,6.44,6.44,0,0,0,6.42,6.42,6.17,6.17,0,0,0,3-.75,6.81,6.81,0,0,0,2.29-2.05l.08-.12-1.21-.67-.07.09a5.45,5.45,0,0,1-1.78,1.54,4.91,4.91,0,0,1-2.32.56,4.66,4.66,0,0,1-3.21-1.22,5.59,5.59,0,0,1-1.76-3.1h11.39l0-.53a7.42,7.42,0,0,0-1.91-4.73,6.13,6.13,0,0,0-2-1.38A6.67,6.67,0,0,0,104.79,31Zm-2.49,5.21a5.59,5.59,0,0,1,1.76-3.1,4.85,4.85,0,0,1,6.43,0h0a5.52,5.52,0,0,1,1.75,3.1Z"/><path class="cls-1" d="M123,31.06a4.79,4.79,0,0,0-2.54-.69,4.75,4.75,0,0,0-2,.44,5,5,0,0,0-2,1.7,4.31,4.31,0,0,0-.73,2.46v8.24h1.42V35a3,3,0,0,1,.27-1.23,3.33,3.33,0,0,1,.72-1.05,3.28,3.28,0,0,1,2.36-.94,3.87,3.87,0,0,1,1.18.21l.06,0,1.48-.8Z"/><path class="cls-1" d="M125.5,33.36a5.19,5.19,0,0,1,1.62-1.07,4.92,4.92,0,0,1,1.94-.4,5.11,5.11,0,0,1,1.88.35,4.75,4.75,0,0,1,1.56,1l.07.07,1.24-.73-.11-.11a6.27,6.27,0,0,0-4.64-2,6.2,6.2,0,0,0-2.48.49,6.9,6.9,0,0,0-2.08,1.39,6.49,6.49,0,0,0-1.4,2,6.27,6.27,0,0,0-.51,2.49,6.19,6.19,0,0,0,.51,2.48,6.43,6.43,0,0,0,1.4,2.06,6.86,6.86,0,0,0,2.08,1.38,6.21,6.21,0,0,0,2.48.5,6.37,6.37,0,0,0,2.54-.51,6.7,6.7,0,0,0,2.1-1.45l.11-.12-1.24-.72-.07.06a4.78,4.78,0,0,1-1.56,1,5.27,5.27,0,0,1-1.88.34,4.91,4.91,0,0,1-1.94-.39,5.37,5.37,0,0,1-1.62-1.07,5.15,5.15,0,0,1-1.11-1.61,5,5,0,0,1,0-3.9A4.93,4.93,0,0,1,125.5,33.36Z"/><path class="cls-1" d="M145.69,32.36A5.93,5.93,0,0,0,143.64,31a6.67,6.67,0,0,0-5,0,5.93,5.93,0,0,0-2,1.38,6.44,6.44,0,0,0-1.89,4.56,6.3,6.3,0,0,0,.5,2.47,6.52,6.52,0,0,0,3.45,3.45,6.32,6.32,0,0,0,2.48.5,6.15,6.15,0,0,0,3-.75,6.63,6.63,0,0,0,2.29-2.05l.09-.12-1.22-.67-.07.09a5.26,5.26,0,0,1-1.78,1.54,4.84,4.84,0,0,1-2.31.56,4.68,4.68,0,0,1-3.22-1.22,5.52,5.52,0,0,1-1.75-3.1h11.38l0-.53a6.78,6.78,0,0,0-.54-2.57A7,7,0,0,0,145.69,32.36Zm-9.5,3.83a5.52,5.52,0,0,1,1.75-3.1,4.85,4.85,0,0,1,6.43,0,5.52,5.52,0,0,1,1.75,3.1Z"/><path class="cls-1" d="M11.57,59.37a5.3,5.3,0,0,0-2-1.83,7,7,0,0,0-3.17-.67,6.28,6.28,0,0,0-2.5.51A6.42,6.42,0,0,0,.5,60.8a6.18,6.18,0,0,0,0,4.87A6.39,6.39,0,0,0,4,69.1a6.28,6.28,0,0,0,2.5.51A7.41,7.41,0,0,0,9.6,69a4.89,4.89,0,0,0,2-1.77v2.28h1.35V52.64H11.57Zm-.45,2a4.81,4.81,0,0,1,.4,1.91,4.89,4.89,0,0,1-.4,1.92A5,5,0,0,1,10,66.77a4.9,4.9,0,0,1-1.62,1.08,5.19,5.19,0,0,1-3.91,0,5,5,0,0,1-1.61-1.07A5.19,5.19,0,0,1,1.8,65.16a4.89,4.89,0,0,1-.4-1.92,4.75,4.75,0,0,1,.39-1.9,5.18,5.18,0,0,1,1.1-1.61,5.07,5.07,0,0,1,3.56-1.46,4.82,4.82,0,0,1,1.93.39A5.42,5.42,0,0,1,10,59.73,5.11,5.11,0,0,1,11.12,61.33Z"/><path class="cls-1" d="M25.88,58.63a6.07,6.07,0,0,0-2.06-1.38,6.65,6.65,0,0,0-5,0,6.07,6.07,0,0,0-2.06,1.38,6.44,6.44,0,0,0-1.39,2.08,6.5,6.5,0,0,0,0,4.95,6.61,6.61,0,0,0,1.39,2.07,6.42,6.42,0,0,0,2.07,1.38,6.27,6.27,0,0,0,2.47.5,6.19,6.19,0,0,0,3-.75,6.81,6.81,0,0,0,2.29-2l.08-.11L25.5,66l-.06.08a5.39,5.39,0,0,1-1.79,1.54,4.84,4.84,0,0,1-2.31.56A4.7,4.7,0,0,1,18.12,67a5.52,5.52,0,0,1-1.75-3.1H27.75l0-.53a7.42,7.42,0,0,0-1.91-4.73Zm-9.51,3.83a5.55,5.55,0,0,1,1.75-3.1,4.86,4.86,0,0,1,6.44,0,5.67,5.67,0,0,1,1.75,3.1Z"/><path class="cls-1" d="M52,61.09a8.49,8.49,0,0,0-5.2-7.86,8.27,8.27,0,0,0-3.27-.66,8.15,8.15,0,0,0-3.26.66,8.63,8.63,0,0,0-2.7,1.82,8.19,8.19,0,0,0-1.83,2.73A8.54,8.54,0,0,0,35,61.09a8.36,8.36,0,0,0,.65,3.26,8.2,8.2,0,0,0,1.84,2.7,8.92,8.92,0,0,0,2.72,1.83,8.3,8.3,0,0,0,3.24.66H52V67H49.49a8.52,8.52,0,0,0,1.75-2.55A8.32,8.32,0,0,0,52,61.09Zm-3,2.29a5.95,5.95,0,0,1-7.78,3.2,5.77,5.77,0,0,1-1.92-1.28,5.88,5.88,0,0,1-1.74-4.21A6,6,0,0,1,38,58.75a5.75,5.75,0,0,1,1.27-1.92,6,6,0,0,1,4.21-1.74,6,6,0,0,1,2.29.46,5.93,5.93,0,0,1,1.92,1.28,6.11,6.11,0,0,1,1.74,4.26A5.93,5.93,0,0,1,49,63.38Z"/><path class="cls-1" d="M61.44,64.44a2.57,2.57,0,0,1-.78,1.88,2.72,2.72,0,0,1-.86.58,2.61,2.61,0,0,1-1,.21,2.51,2.51,0,0,1-1.85-.79,2.54,2.54,0,0,1-.79-1.88v-7.7H53.7v7.7a5.07,5.07,0,0,0,.39,2,5.62,5.62,0,0,0,1.09,1.66,5.27,5.27,0,0,0,1.65,1.11,5.05,5.05,0,0,0,2,.4,3.75,3.75,0,0,0,1.57-.37,4.08,4.08,0,0,0,1.08-.69v.88h2.43V56.74H61.44Z"/><path class="cls-1" d="M74.52,57.25a6.65,6.65,0,0,0-5,0,6.07,6.07,0,0,0-2.06,1.38,6.44,6.44,0,0,0-1.39,2.08,6.5,6.5,0,0,0,0,4.95,6.61,6.61,0,0,0,1.39,2.07,6.42,6.42,0,0,0,2.07,1.38,6.27,6.27,0,0,0,2.47.5,6.12,6.12,0,0,0,3.19-.87,7.27,7.27,0,0,0,2.44-2.46l.06-.11-2.11-1.25-.06.1A4.09,4.09,0,0,1,72,67.11a3.73,3.73,0,0,1-2.37-.8,4.62,4.62,0,0,1-1-1.07,2.28,2.28,0,0,1-.41-1h10.1l0-.11a6.61,6.61,0,0,0,.07-1,6.26,6.26,0,0,0-1.88-4.48A6.07,6.07,0,0,0,74.52,57.25ZM68.27,62a2.6,2.6,0,0,1,.51-1.37,3.77,3.77,0,0,1,1.39-1.15,4.28,4.28,0,0,1,3.74,0,3.85,3.85,0,0,1,1.39,1.15A2.6,2.6,0,0,1,75.81,62Z"/><polygon class="cls-1" points="74.06 52.09 71.84 52.09 70.85 55.79 72.78 55.79 74.06 52.09"/><path class="cls-1" d="M91.5,58.48a6.46,6.46,0,0,0-4.57-1.91,5.25,5.25,0,0,0-2.57.61,5.37,5.37,0,0,0-1.45,1.13V52.64H80.46V69.49h2.45V67.77a6.44,6.44,0,0,0,1.7,1.28,5.15,5.15,0,0,0,2.32.56,6.28,6.28,0,0,0,2.5-.51,6.47,6.47,0,0,0,2.07-1.4,6.83,6.83,0,0,0,1.38-2.1,6.55,6.55,0,0,0,0-5A6.83,6.83,0,0,0,91.5,58.48Zm-.62,4.61a4,4,0,0,1-1.16,2.84h0a3.89,3.89,0,0,1-4.33.87,3.88,3.88,0,0,1-1.27-.87A4,4,0,0,1,83,63.09a3.89,3.89,0,0,1,.31-1.54,4.57,4.57,0,0,1,.85-1.3,3.71,3.71,0,0,1,1.27-.86,4.06,4.06,0,0,1,1.54-.3,4,4,0,0,1,1.53.3,3.92,3.92,0,0,1,1.26.86,4.43,4.43,0,0,1,.85,1.3A4.07,4.07,0,0,1,90.88,63.09Z"/><path class="cls-1" d="M103.53,57.25a6.65,6.65,0,0,0-5,0,6.07,6.07,0,0,0-2.06,1.38,6.41,6.41,0,0,0-1.38,2.08,6.18,6.18,0,0,0-.5,2.48,6.3,6.3,0,0,0,.5,2.47,6.58,6.58,0,0,0,1.38,2.07,6.42,6.42,0,0,0,2.07,1.38,6.27,6.27,0,0,0,2.47.5,6.12,6.12,0,0,0,3.19-.87,7.27,7.27,0,0,0,2.44-2.46l.07-.11-2.12-1.25-.06.1a4.09,4.09,0,0,1-3.52,2.09,3.73,3.73,0,0,1-2.37-.8,4.84,4.84,0,0,1-1-1.07,2.28,2.28,0,0,1-.41-1h10.1l0-.11a6.61,6.61,0,0,0,.07-1,6.26,6.26,0,0,0-1.88-4.48A6.07,6.07,0,0,0,103.53,57.25ZM97.28,62a2.6,2.6,0,0,1,.51-1.37,3.85,3.85,0,0,1,1.39-1.15,4.28,4.28,0,0,1,3.74,0,3.77,3.77,0,0,1,1.39,1.15,2.6,2.6,0,0,1,.51,1.37Z"/><path class="cls-1" d="M112.58,60.41a3.93,3.93,0,0,1,1.25-.84,3.84,3.84,0,0,1,1.51-.3,4,4,0,0,1,3,1.33l.07.07,2.16-1.24-.09-.12a6.39,6.39,0,0,0-5.1-2.54,6.21,6.21,0,0,0-2.46.49,6.7,6.7,0,0,0-2,1.39,6.49,6.49,0,0,0-1.36,2.06,6.4,6.4,0,0,0,0,5,6.49,6.49,0,0,0,1.36,2.06,6.33,6.33,0,0,0,2,1.38,6.22,6.22,0,0,0,2.46.5,6.42,6.42,0,0,0,5.1-2.54l.09-.12-2.16-1.24-.07.07a4,4,0,0,1-3,1.33A3.87,3.87,0,0,1,112.58,66a4,4,0,0,1-.85-1.26,3.88,3.88,0,0,1,0-3A4,4,0,0,1,112.58,60.41Z"/></g></g></svg>